<svg id="Layer_1" data-name="Layer 1" xmlns="http://www.w3.org/2000/svg" viewBox="0 0 59.11 145.09"><defs><style>.cls-1{fill:#62a8dc;}</style></defs><title>bajo-peso</title><path class="cls-1" d="M86.85,41.74c3.51,0,7.34-.23,9.94,2.13,3.55,4,3.2,4.38,3.2,15.6V80.88c0,7.54.15,14.14-5.16,14.14-3.79,0-4.05-7.29-4.16-11.55-0.2-7.9-.08-7.74-0.08-12.4,0-5.1.5-9.08-2.18-9.08-1.93,0-1.54,3.17-1.54,8.6,0,5,0,75.81,0,79.9,0,3.51-1.7,7.26-7,7.26s-7.29-3.08-7.29-6.59V111.75c0-3.51-.46-5.2-2.3-5.2s-2.24,1.7-2.24,5.2v39.42c0,3.51-1.68,6.59-6.95,6.59S54,154,54,150.48c0-4.09,0-74.87,0-79.9,0-5.42.25-8.6-1.89-8.6-2.56,0-1.74,4-1.74,9.08V83.33c0,4.73.2,11.71-4.88,11.71-4.59,0-4.73-5.54-4.61-14.16,0.08-6.19,0-15.87,0-21.42,0-11.22-.35-11.57,3.19-15.6,2.6-2.36,6.27-2.13,9.77-2.13h33Z" transform="translate(-40.89 -12.66)"/><circle class="cls-1" cx="28.85" cy="13.51" r="13.51"/></svg>