<svg id="Layer_1" data-name="Layer 1" xmlns="http://www.w3.org/2000/svg" viewBox="0 0 97.02 132.19"><defs><style>.cls-1{fill:#0fb04b;}</style></defs><title>fig1</title><path class="cls-1" d="M117.18,25.22c-2.93-3.39-8.1.69-12.74,4-4.2,3-15.48,12.17-19.72,13.92a53.8,53.8,0,0,1-13,3.82,52.44,52.44,0,0,1-13.24.21c-4.09-.1-18.24-5.93-23.35-7.63-5.4-1.79-11.53-4.19-13.35-.09s1.74,6.62,8,9.39c6.66,3,5.85,2.78,9.79,4.53,4.3,1.91,14.13,6.92,16.49,9.59s3.19,7,4.37,11.87C64.9,93.21,42,138.86,41,142.49c-0.92,3.1-.25,6.91,4.42,8.3s7.41-.76,8.34-3.87c1.66-5.59,13.81-30.49,16.58-37.66,1.13-2.92,2.28-5.1,3.4-5.6a2.66,2.66,0,0,1,1.55,0c1.08,0.43,2,2.69,3.12,5.59,2.76,7.17,9.12,32.07,10.78,37.66,0.92,3.11,3.67,5.25,8.33,3.87s5.34-5.2,4.42-8.3S89.83,103,88,80.39c-0.52-6.38.13-17,3.11-22.66,2.86-5.4,9.58-10.93,13.14-14,3.26-2.82,2.53-2.41,8-7.19C117.44,32.06,120.05,28.54,117.18,25.22Z" transform="translate(-21.35 -19.03)"/><circle class="cls-1" cx="69.74" cy="31.5" r="12.47" transform="translate(-25.23 -8.42) rotate(-8.47)"/></svg>