<svg id="Layer_1" data-name="Layer 1" xmlns="http://www.w3.org/2000/svg" viewBox="0 0 82.89 147.43"><defs><style>.cls-1{fill:#e3b723;}</style></defs><title>obesidad</title><path class="cls-1" d="M43.31,46c3.35-2.6,7.44-3.41,11.75-3.75S67,42.12,71.7,42a149.25,149.25,0,0,1,18.37.83,33.69,33.69,0,0,1,5.1.73,18.83,18.83,0,0,1,10.74,6.18c3,3.66,4.59,7.23,6,13.43a80.53,80.53,0,0,1,1.88,19.3,57.66,57.66,0,0,1-.75,8.66,7.13,7.13,0,0,1-3.63,5.14c-1.88,1-4.13.73-4.86-1.27s-0.84-5.33-.87-8.76c-0.05-4.81.08-8.8-.21-11.21-0.1-.85-0.22-1.69-0.36-2.54-0.82-5-2.2-8.64-4.25-10.15-1.14-.84-2.13-1.05-3-0.52,0.34,2.13.69,4.34,1.11,6.57,1.53,8.19,3.35,16.86,3.47,25.39,0.38,24-5.06,43-11.25,61.52-1.64,4.91-9.54,5.6-12,1.11A18.23,18.23,0,0,1,75,148c-0.19-7.34.32-18.14,0.32-25.93,0-7.23-6.54-5.2-6.24-.31,0.52,8.47,2.24,25.21.54,33.08-0.09.41-.19,0.81-0.3,1.2-0.66,2.26-3.15,3.76-6.32,4-3.73.25-6.87-1.42-7.6-4.42-4.59-18.9-10.52-34.19-10.62-59.24,0-9,1.28-18.67,2.53-28.23,0.25-1.91.52-3.81,0.68-5.68,0.09-1-1.17-.61-3,1.7-1.48,1.86-2.55,5.37-3.3,10.49-0.11.75-.21,1.49-0.3,2.25-0.14,3.25.12,6.93,0.16,11.38,0,4.25-.19,8.14-1.93,9.36s-4.18.59-5-.72c-2.54-4.1-3.39-9.8-3.67-16.06a57.34,57.34,0,0,1,3.15-21.39C36.26,53.57,38.69,49.91,43.31,46Z" transform="translate(-30.91 -12.66)"/><path class="cls-1" d="M87.32,26.6C88,34.24,81.3,40.18,72,40.33S56.32,34.69,57.1,27s7.46-14.24,15.19-14.32S86.65,19,87.32,26.6Z" transform="translate(-30.91 -12.66)"/></svg>