<svg id="Layer_1" data-name="Layer 1" xmlns="http://www.w3.org/2000/svg" viewBox="0 0 77.15 147.34"><defs><style>.cls-1{fill:#f47821;}</style></defs><title>obsidad2</title><path class="cls-1" d="M15.1,33c3.17-2.55,7.17-3.1,11.29-3.35,3.31-.31,12.45-0.13,16-0.23C48.94,29.19,60,30,60,30a40.44,40.44,0,0,1,4.9.55c3.95,0.7,7.71,1.94,10.58,5.18,3.15,3.77,4.14,6.54,5.31,14A122.13,122.13,0,0,1,82.2,69.65a55.13,55.13,0,0,1-.69,8.92,6.3,6.3,0,0,1-3.91,5,3.2,3.2,0,0,1-4.49-1.88c-0.69-2-.83-5.41-0.86-8.57-0.08-5.22,0-8.51-.18-11-0.07-.8-0.16-1.62-0.26-2.49-0.61-5.05-1.55-8.73-3.75-9.92-1.12-.6-2-0.56-2.65.27,0.23,2,.46,4.15.83,6.46,1,6.6,2.52,15.5,2.61,24.91a212.54,212.54,0,0,1-8.44,60.57c-1.34,4.55-7.42,5.71-10.79,2.68a10.55,10.55,0,0,1-3.45-7.95C46,129,46,114.16,46.4,106c0.31-6.24-6.39-5.24-5.83,1,0.64,7.1,1.62,27.31.4,34.82-0.07.43-.15,0.86-0.25,1.27-0.61,2.42-2.95,4.12-6.48,4.28-4.14.19-6.87-2-7.51-5.16-3.08-14.91-7.89-33.77-8-58.26a246.86,246.86,0,0,1,1.9-27.57c0.22-2,.42-3.82.5-5.57,0.06-1.33-.93-1.23-2.73.4S16,56.23,15.53,61.34c-0.08.76-.16,1.49-0.22,2.2-0.11,3.14.09,6.14,0.12,11.14,0,3.89-.12,7.7-1.68,9.24a3.68,3.68,0,0,1-4.75.2c-3.16-2.93-3.72-8.76-3.92-15.64A83.48,83.48,0,0,1,7.44,47C9.24,39.76,10.74,36.89,15.1,33Z" transform="translate(-5.06 0)"/><path class="cls-1" d="M58,13.89c0.5,7.63-6,13.62-14.89,13.73S27.94,21.85,28.53,14.17,35.66,0,43.35,0A14.93,14.93,0,0,1,58,13.89Z" transform="translate(-5.06 0)"/></svg>