<svg id="Layer_1" data-name="Layer 1" xmlns="http://www.w3.org/2000/svg" viewBox="0 0 88.6 147.4"><defs><style>.cls-1{fill:#c32026;}</style></defs><title>obsidad3</title><path class="cls-1" d="M90.05,44.36c6.49,0.54,12,2.8,16.19,8.09,7.26,9.07,10.82,23.16,8.21,39.9a8.33,8.33,0,0,1-3.36,5.25c-1.87,1.31-4.48,1.31-5.22-.66-1.54-3.78-.43-16.05-1.11-20.38-1.31-9.49-5.39-15-8.59-14.27,2.49,12.64,5.55,23.2,5.72,32.54C102.36,119.06,96,135,87.83,157.3c-1.93,5.28-12.13,5.46-13.25-.46-1.86-9.85-.43-26.47-0.43-36.32,0-6-6.34-6.75-6.34-.33,0,9.89,3.39,28,0,37.55-1.49,4.59-12.34,5.32-13.83,0-6.38-22.78-13.14-34.6-13.27-60.2,0-9.31,2-20.45,4-34.59,0.19-1.29-5.38,2.16-7.34,16.1-0.38,7.31,1.6,19.43-2,21.08-1.87,1-4.68-.05-5.22-1.64-5.76-16.77-6-37.18,11.19-50.63,7.83-5.91,19-3.94,29.53-4.53A155.67,155.67,0,0,1,90.05,44.36Z" transform="translate(-26.7 -14.07)"/><path class="cls-1" d="M86.45,28.06c0.84,7.65-6,13.54-15.65,13.73S54.58,36.27,55.56,28.53s7.79-14.37,15.55-14.47S85.62,20.4,86.45,28.06Z" transform="translate(-26.7 -14.07)"/></svg>