<svg id="Layer_1" data-name="Layer 1" xmlns="http://www.w3.org/2000/svg" viewBox="0 0 70.32 145.09"><defs><style>.cls-1{fill:#3f2978;}</style></defs><title>sobrepeso</title><path class="cls-1" d="M43.39,44.69c2.95-2.46,6.79-2.75,10.67-2.91,2.17-.2,12.72-0.09,15-0.16,4.3-.13,16.58.41,16.58,0.41,0.73,0.06,4,.18,4.63.36,3.76,0.45,7.5,1.2,10.26,4.11,3.25,3.81,3.7,5.75,4.55,14.41a202,202,0,0,1,.92,20.2,52.41,52.41,0,0,1-.62,9c-0.48,2.46-1.73,4.23-4.12,4.84a3.25,3.25,0,0,1-4.06-2.46,33,33,0,0,1-.84-8.25c-0.09-5.53,0-8.07-.14-10.56,0-.74-0.1-1.53-0.17-2.41-0.4-5-.85-8.72-3.19-9.53a1.58,1.58,0,0,0-2.25,1c0.12,1.78.24,3.89,0.53,6.24a205.18,205.18,0,0,1,1.72,24c0.19,23.16-2.94,48.1-5.53,58.67-1,4.14-5.51,6-9.41,4.18a7.68,7.68,0,0,1-4.69-7.41c-0.09-6.67.15-23.22,0.15-31.75,0-8-5.34-4.83-5.34-.87,0,5.68,1,28.94.26,36a12.92,12.92,0,0,1-.2,1.32c-0.55,2.54-2.71,4.41-6.53,4.52-4.48.12-6.78-2.6-7.31-5.8-1.79-10.68-5.18-32.82-5.22-56.37,0-10.94.76-21,1.25-26.63,0.17-2,.3-3.77.32-5.37s-0.76-1.86-2.41-.88c-1.92,1.14-2.14,4.62-2.5,9.7L45.6,74.52c-0.07,3,.06,5.26.08,10.71,0,3.48-.06,7.17-1.4,9a3.64,3.64,0,0,1-4.44,1.12c-3.6-1.83-4-7.59-4.11-15a135.13,135.13,0,0,1,1.55-21.23C38.66,50.61,39.35,48.61,43.39,44.69Z" transform="translate(-35.71 -12.66)"/><path class="cls-1" d="M84.62,26.27c0.33,7.49-6,13.44-14.27,13.51S55.86,34,56.24,26.46a14.6,14.6,0,0,1,14.23-13.8A14.29,14.29,0,0,1,84.62,26.27Z" transform="translate(-35.71 -12.66)"/></svg>